<svg id="Group_10" data-name="Group 10" xmlns="http://www.w3.org/2000/svg" width="675.427" height="503.5" viewBox="0 0 675.427 503.5">
  <ellipse id="Ellipse_23" data-name="Ellipse 23" cx="332.518" cy="32.475" rx="332.518" ry="32.475" transform="translate(0 438.549)" fill="#3f3d56"/>
  <ellipse id="Ellipse_24" data-name="Ellipse 24" cx="156.728" cy="23.65" rx="156.728" ry="23.65" transform="translate(76.952 442.785)" opacity="0.1"/>
  <path id="Path_49" data-name="Path 49" d="M286.5,354.14a133.268,133.268,0,1,0,27,263.8A133.34,133.34,0,0,1,400.43,418.229,133.191,133.191,0,0,0,286.5,354.14Z" transform="translate(-130.921 -170.062)" fill="#d90000"/>
  <path id="Path_50" data-name="Path 50" d="M166.679,491.642A133.339,133.339,0,0,1,321.323,360.093a133.287,133.287,0,1,0-56.117,260.235,133.311,133.311,0,0,1-98.527-128.686Z" transform="translate(-130.921 -170.462)" opacity="0.1"/>
  <path id="Path_51" data-name="Path 51" d="M418.173,340.6a133.205,133.205,0,1,0-199.694-86.928A133.316,133.316,0,0,1,418.173,340.6Z" transform="translate(-149.3 -93.4)" fill="#d90000"/>
  <path id="Path_52" data-name="Path 52" d="M523.9,226.668a133.071,133.071,0,0,1-54.156,107.246c.572,2.21,1.1,4.434,1.567,6.686A133.282,133.282,0,0,0,402.137,93.4c-1.927,0-3.841.049-5.747.134A133.275,133.275,0,0,1,523.9,226.668Z" transform="translate(-202.414 -93.4)" opacity="0.1"/>
  <path id="Path_53" data-name="Path 53" d="M486.481,520.569a39.778,39.778,0,0,0-6.2,3.925,13.329,13.329,0,0,0-4.314,5.839,53.774,53.774,0,0,1-2.669-7.893,131.331,131.331,0,0,0-5.45-14.183,18.9,18.9,0,0,0,8.578-6.587c4.236,4.2,8.549,8.578,10.646,14.12.36.96,1.412,1.984,1.659,2.824C489.065,519.863,487.4,520.061,486.481,520.569Z" transform="translate(-223.425 -213.439)" fill="#ffbfc5"/>
  <path id="Path_54" data-name="Path 54" d="M329,703.017c0,31.5,22.726,34.84,50.767,34.84s50.76-3.339,50.76-34.84S407.8,659.55,379.767,659.55,329,671.523,329,703.017Z" transform="translate(-182.6 -259.858)" fill="#3f3d56"/>
  <path id="Path_55" data-name="Path 55" d="M547.175,673.261a38.878,38.878,0,0,1,12.665,6.777,1.306,1.306,0,0,1,.572.777c.1.706-.875,1.024-1.581,1.228-2.118.6-3.41,2.556-4.942,4.081s-3.989,2.732-5.775,1.511a5.65,5.65,0,0,1-1.214-1.278l-7.54-9.827a45.663,45.663,0,0,1,8.027-3.53" transform="translate(-244.45 -263.813)" fill="#f1f1f1"/>
  <path id="Path_56" data-name="Path 56" d="M562.484,675.748c1,1.017,1.412,2.485,2.414,3.53a8.635,8.635,0,0,0,2.231,1.546L572.9,684a15.974,15.974,0,0,0,2.824,1.32,25.088,25.088,0,0,0,3.311.706,23.853,23.853,0,0,1,4.674,1.412c1.13.466,2.393,1.264,2.386,2.485a2.7,2.7,0,0,1-.706,1.61c-2.273,2.866-6.3,3.53-9.947,3.89-7.879.833-15.941,1.454-23.643-.4a10.09,10.09,0,0,1-4.158-1.8c-2.323-1.927-2.824-5.436-1.92-8.323a4.5,4.5,0,0,1,1.836-2.732c1.221-.706,2.739-.374,4.144-.48a13.073,13.073,0,0,0,4.236-1.362c.883-.4,1.892-.911,2.118-1.956s-.967-1.948-.706-2.824C557.846,673.573,561.566,674.809,562.484,675.748Z" transform="translate(-246.197 -264.251)" fill="#575a89"/>
  <path id="Path_57" data-name="Path 57" d="M562.484,675.748c1,1.017,1.412,2.485,2.414,3.53a8.635,8.635,0,0,0,2.231,1.546L572.9,684a15.974,15.974,0,0,0,2.824,1.32,25.088,25.088,0,0,0,3.311.706,23.853,23.853,0,0,1,4.674,1.412c1.13.466,2.393,1.264,2.386,2.485a2.7,2.7,0,0,1-.706,1.61c-2.273,2.866-6.3,3.53-9.947,3.89-7.879.833-15.941,1.454-23.643-.4a10.09,10.09,0,0,1-4.158-1.8c-2.323-1.927-2.824-5.436-1.92-8.323a4.5,4.5,0,0,1,1.836-2.732c1.221-.706,2.739-.374,4.144-.48a13.073,13.073,0,0,0,4.236-1.362c.883-.4,1.892-.911,2.118-1.956s-.967-1.948-.706-2.824C557.846,673.573,561.566,674.809,562.484,675.748Z" transform="translate(-246.197 -264.251)" opacity="0.1"/>
  <path id="Path_58" data-name="Path 58" d="M580.987,718.036l2.429,1.6a4.342,4.342,0,0,1,1.758,1.737c.529,1.235-.184,2.633-.974,3.721a21.378,21.378,0,0,1-9.347,7.243,13.936,13.936,0,0,1-4.059,1.01,1.694,1.694,0,0,1-.939-.113c-.741-.4-.635-1.447-.642-2.287,0-2.422-1.857-4.391-3.53-6.177s-3.325-3.975-2.944-6.354a7.906,7.906,0,0,1,2.118-3.728,15.239,15.239,0,0,1,3.177-3c1.716-1.122,2.316-.515,3.925.508Q576.5,715.085,580.987,718.036Z" transform="translate(-251.307 -275.011)" fill="#f1f1f1"/>
  <path id="Path_59" data-name="Path 59" d="M574.123,732.8a4.328,4.328,0,0,0,3.819-.861,9.566,9.566,0,0,0,2.478-3.191,25.934,25.934,0,0,0,1.539-3.375c.508-1.362.974-2.866,2.174-3.692,1.412-1,3.488-.607,4.942.36a27.234,27.234,0,0,1,3.805,3.643,25.714,25.714,0,0,0,10.8,6.008,117.082,117.082,0,0,0,12.2,2.605,6.917,6.917,0,0,1,2.344.755,4.724,4.724,0,0,1,1.744,5.14,11.228,11.228,0,0,1-3.022,4.843,12.172,12.172,0,0,1-4.045,3.128,12.915,12.915,0,0,1-4.088.777,69.815,69.815,0,0,1-20.191-1.581,54.02,54.02,0,0,0-7.4-1.475c-1.518-.134-3.057-.092-4.575-.2a24.088,24.088,0,0,1-8.74-2.3,3.085,3.085,0,0,1-1.589-1.327,3.261,3.261,0,0,1-.12-1.751l1.01-8.853c.092-.77.346-1.73,1.115-1.85s1.257.635,1.716,1.214a6.262,6.262,0,0,0,7.49,1.638" transform="translate(-252.322 -277.952)" fill="#575a89"/>
  <path id="Path_60" data-name="Path 60" d="M477.53,579.422c4.441-.5,9.594-.586,12.6,2.725,1.843,2.033,2.4,4.878,3.036,7.54a48.961,48.961,0,0,0,4.815,12.821,72.514,72.514,0,0,1,4.236,7.49c1.108,2.654,1.525,5.648,2.174,8.535a51.5,51.5,0,0,0,18.031,28.691c-1.6,4.356-6.241,6.848-10.752,7.964a5.924,5.924,0,0,1-3.368.106,6.015,6.015,0,0,1-2.182-1.61,74.843,74.843,0,0,1-5.881-7.208c-6.5-8.684-13.1-17.544-16.64-27.787-1.242-3.6-2.485-7.766-5.98-9.3-1.991-.861-4.271-.593-6.41-.226a86.888,86.888,0,0,0-14.063,3.608c-4.885,1.7-10.477,3.791-14.946,1.193-2.676-1.56-4.236-4.547-4.85-7.582a31.236,31.236,0,0,1,0-9.248,9.523,9.523,0,0,1,.974-4,8.662,8.662,0,0,1,2.337-2.365,48.115,48.115,0,0,1,13.159-7.06c4.511-1.6,9.368-2.118,14.077-2.916Q472.694,579.966,477.53,579.422Z" transform="translate(-214.354 -236.223)" fill="#575a89"/>
  <path id="Path_61" data-name="Path 61" d="M477.53,579.422c4.441-.5,9.594-.586,12.6,2.725,1.843,2.033,2.4,4.878,3.036,7.54a48.961,48.961,0,0,0,4.815,12.821,72.514,72.514,0,0,1,4.236,7.49c1.108,2.654,1.525,5.648,2.174,8.535a51.5,51.5,0,0,0,18.031,28.691c-1.6,4.356-6.241,6.848-10.752,7.964a5.924,5.924,0,0,1-3.368.106,6.015,6.015,0,0,1-2.182-1.61,74.843,74.843,0,0,1-5.881-7.208c-6.5-8.684-13.1-17.544-16.64-27.787-1.242-3.6-2.485-7.766-5.98-9.3-1.991-.861-4.271-.593-6.41-.226a86.888,86.888,0,0,0-14.063,3.608c-4.885,1.7-10.477,3.791-14.946,1.193-2.676-1.56-4.236-4.547-4.85-7.582a31.236,31.236,0,0,1,0-9.248,9.523,9.523,0,0,1,.974-4,8.662,8.662,0,0,1,2.337-2.365,48.115,48.115,0,0,1,13.159-7.06c4.511-1.6,9.368-2.118,14.077-2.916Q472.694,579.966,477.53,579.422Z" transform="translate(-214.354 -236.223)" opacity="0.1"/>
  <path id="Path_62" data-name="Path 62" d="M526.837,623.941a22.93,22.93,0,0,1,5.648,3.989,20.269,20.269,0,0,1,3.826,6.869,8.337,8.337,0,0,1,.664,2.654,3.015,3.015,0,0,1-.981,2.457,4.4,4.4,0,0,1-2.775.706c-1.285,0-2.577,0-3.862-.1a6.452,6.452,0,0,1-2.287-.438,6.353,6.353,0,0,1-1.779-1.348,25.014,25.014,0,0,1-5.471-7.385c-.932-2.054-2.471-6.8-1-8.938S525.242,623.031,526.837,623.941Z" transform="translate(-238.231 -248.704)" fill="#ffbfc5"/>
  <path id="Path_63" data-name="Path 63" d="M421.781,623.87c6.573,2.118,13.569,2.344,20.438,2.986a170.692,170.692,0,0,1,34.064,6.735,18.287,18.287,0,0,1,6.424,2.986,19.1,19.1,0,0,1,3.728,4.744,80.122,80.122,0,0,1,4.892,8.556c1.25,2.669,2.2,5.464,3.361,8.168A57.4,57.4,0,0,0,512.6,680.984c1.412,1.094,3.029,2.28,3.4,4.038a5.606,5.606,0,0,1-.53,3.318c-1.694,3.946-5.21,6.82-8.9,9.015-1.581.946-3.332,1.9-4.109,3.579-5.606-2.316-9.778-7.258-13.244-12.228s-6.552-10.329-11-14.451c-1.956-1.821-4.179-3.4-5.726-5.591-2.351-3.332-2.986-7.893-6.149-10.463s-7.766-2.238-11.853-1.836a290.871,290.871,0,0,1-62.938-.706c-4.342-.515-8.8-1.179-12.567-3.417s-6.693-6.417-6.163-10.759c.5-4.066,3.883-7.286,7.66-8.874s7.942-1.878,12-2.337A125.473,125.473,0,0,0,421.781,623.87Z" transform="translate(-195.464 -249.367)" fill="#575a89"/>
  <path id="Path_64" data-name="Path 64" d="M357,597.824c.515-3.445,1.85-6.707,2.69-10.088a61.017,61.017,0,0,1,1.6-6.3c0-.064.049-.12.071-.177a1.454,1.454,0,0,0,1.073-.614,1.779,1.779,0,0,0,.092-.946,6.865,6.865,0,0,1,0-1.01,72.188,72.188,0,0,1,4.5-6.672c2.824-4.031,5.309-8.317,7.766-12.595,2.019-3.53,4.038-7.018,5.7-10.7,1.257-2.76,2.309-5.648,3.692-8.316,4.942-9.6,13.781-16.682,23.3-21.766,9.135-4.878,19.012-8.161,28.613-12.044a6.509,6.509,0,0,1,.671.791c5.189,7.1,5.747,16.414,7.886,24.942.861,3.445,2.012,6.876,2.012,10.42,0,5.238-2.506,10.11-5,14.72a79.569,79.569,0,0,1-7.843,12.517c-1.468,1.821-3.085,3.53-4.561,5.33-6.057,7.42-9.552,16.548-12.955,25.507-1.963,5.189-5.182,9.785-7.342,14.9a58.339,58.339,0,0,1-2.358,5.937c-1.045,1.864-2.859,3.488-4.991,3.53a7.487,7.487,0,0,1-1.843-.29c-7.716-1.984-14.176-7.06-20.586-11.818-1.151-.847-2.3-1.68-3.53-2.443s-2.471-1.461-3.728-2.118l-2.866-1.574c-3.12-1.708-6.255-3.424-9.51-4.871a17.3,17.3,0,0,1-2.824-1.412,16.854,16.854,0,0,1,.268-2.831Z" transform="translate(-190.754 -214.885)" fill="#3f3d56"/>
  <circle id="Ellipse_25" data-name="Ellipse 25" cx="17.777" cy="17.777" r="17.777" transform="translate(249.339 270.984)" fill="#ffbfc5"/>
  <path id="Path_65" data-name="Path 65" d="M500.734,481.448a4.236,4.236,0,0,0,4.377,2.054,6.135,6.135,0,0,0,4.088-2.916,11.529,11.529,0,0,0,1.511-4.9,5.12,5.12,0,0,0-.741-3.876,8.513,8.513,0,0,0-2.252-1.581,8.571,8.571,0,0,1-2.824-2.824c-.494-.826-.854-1.723-1.3-2.57-1.617-3.071-4.765-5.57-8.232-5.457a39.3,39.3,0,0,0-4.9.974c-5.514.967-11.5-1.949-16.619.325a15.532,15.532,0,0,0-3.473,2.316q-2.16,1.786-4.151,3.756a8.571,8.571,0,0,0-2.527,3.678c-.706,2.612.953,5.528-.1,8.013a11.8,11.8,0,0,1-1.278,2.012c-1.158,1.7.1,8.345,0,10.4a3.848,3.848,0,0,0,.706,2.824c.84.939,2.245,1.017,3.53,1.031h2.309a2.931,2.931,0,0,0,1.024-.106,3.1,3.1,0,0,0,1.165-.89c1.92-2.026,2.33-8.641,5.118-8.613a1.991,1.991,0,0,1,1.207.311c.5.367.649,1.052,1.01,1.56a2.951,2.951,0,0,0,3.424.8,7.723,7.723,0,0,0,2.916-2.358,11.485,11.485,0,0,1,2.725-2.605c1.49-.868,3.17-1.243,4.617-2.224,1.207-.819,1.892-2.005,2.979-2.909a2.5,2.5,0,0,1,3.163-.176C499.88,478.426,499.951,479.894,500.734,481.448Z" transform="translate(-221.652 -201.003)" fill="#3f3d56"/>
  <path id="Path_66" data-name="Path 66" d="M451.032,534.882a28.288,28.288,0,0,1,12.383.988,6.579,6.579,0,0,1,3.452,2.054,6.2,6.2,0,0,1,.988,2.584,20.89,20.89,0,0,1-1.5,12.595,1.666,1.666,0,0,0-.2,1.341,2.372,2.372,0,0,0,.706.706,2.457,2.457,0,0,1-.148,3.664c-.332.24-.77.452-.833.854s.346.791.671,1.1a3.946,3.946,0,0,1,1.1,3.629,7.957,7.957,0,0,0-.36,1.6,5.232,5.232,0,0,0,.586,1.913,8.374,8.374,0,0,1,.53,4.236,4.666,4.666,0,0,0-.049,2.069,4.814,4.814,0,0,0,.791,1.242c1.278,1.723,1.553,4.6-.3,5.648a4.285,4.285,0,0,1,2.28,4.419c1.108-.586,2.45.169,3.375,1.017s1.864,1.892,3.113,1.956c.875.042,1.8-.409,2.591-.049,1.214.544,1.172,2.513,2.365,3.1,1.045.522,2.506-.325,3.4.431.311.261.466.664.77.939.671.621,1.73.36,2.647.318a6.3,6.3,0,0,1,5.288,3.233,15.744,15.744,0,0,1,1.814,6.192,8.2,8.2,0,0,1-.071,3.565,3.057,3.057,0,0,1-2.506,2.259c-10.907.706-21.674-1.913-32.3-4.5-3.12-.763-6.29-1.652-8.9-3.53a27.151,27.151,0,0,1-5.8-6.5A84.8,84.8,0,0,1,438.4,580.27c-2.88-6.29-4.165-13.181-5.422-19.993a18.6,18.6,0,0,1-.459-5.577,15.806,15.806,0,0,1,2.457-6.114,66.567,66.567,0,0,1,4.942-7.01A18.323,18.323,0,0,1,451.032,534.882Z" transform="translate(-213.025 -223.12)" opacity="0.1"/>
  <path id="Path_67" data-name="Path 67" d="M452.06,533.882a28.24,28.24,0,0,1,12.39,1,6.523,6.523,0,0,1,3.452,2.047,6.3,6.3,0,0,1,.988,2.584,20.939,20.939,0,0,1-1.5,12.595,1.666,1.666,0,0,0-.2,1.341,2.371,2.371,0,0,0,.706.706,2.457,2.457,0,0,1-.148,3.664c-.332.24-.769.452-.833.854s.346.791.706,1.1a3.946,3.946,0,0,1,1.1,3.629,7.954,7.954,0,0,0-.36,1.6,5.216,5.216,0,0,0,.579,1.913,8.31,8.31,0,0,1,.537,4.236,3.05,3.05,0,0,0,.741,3.311c1.278,1.723,1.553,4.6-.3,5.69a4.271,4.271,0,0,1,2.28,4.412c1.108-.586,2.45.169,3.375,1.017s1.864,1.892,3.113,1.956c.875.042,1.793-.409,2.591-.049,1.214.551,1.172,2.513,2.365,3.106,1.045.515,2.506-.332,3.4.424.311.261.466.664.77.939.671.621,1.73.36,2.647.318a6.3,6.3,0,0,1,5.288,3.233,15.884,15.884,0,0,1,1.814,6.192,8.422,8.422,0,0,1-.071,3.53,3.057,3.057,0,0,1-2.506,2.259c-10.907.706-21.674-1.913-32.3-4.5-3.12-.762-6.3-1.652-8.9-3.53a27.019,27.019,0,0,1-5.8-6.5,84.438,84.438,0,0,1-8.514-13.682c-2.88-6.3-4.165-13.188-5.422-19.993a18.637,18.637,0,0,1-.459-5.584,15.807,15.807,0,0,1,2.393-6.121,64.78,64.78,0,0,1,4.942-7A18.372,18.372,0,0,1,452.06,533.882Z" transform="translate(-213.339 -222.826)" fill="#3f3d56"/>
  <path id="Path_68" data-name="Path 68" d="M1027.849,345.789a14.2,14.2,0,1,0-7.109-27.427A41.287,41.287,0,0,1,1027.849,345.789Z" transform="translate(-385.984 -159.332)" fill="#d5d5d5"/>
  <path id="Path_69" data-name="Path 69" d="M1059.039,337.659a14.2,14.2,0,1,0-7.109-27.427A41.286,41.286,0,0,1,1059.039,337.659Z" transform="translate(-395.154 -156.941)" fill="#d5d5d5"/>
  <path id="Path_70" data-name="Path 70" d="M1009.447,338.678a14.2,14.2,0,0,1-7.109-27.427,41.2,41.2,0,0,0-44.187-16.485,113.106,113.106,0,0,1,21.956,79.416,41.2,41.2,0,0,0,29.341-35.5Z" transform="translate(-367.581 -152.221)" fill="#d5d5d5"/>
  <path id="Path_71" data-name="Path 71" d="M657.722,374.13a41.222,41.222,0,0,0-31.882,32.68,14.2,14.2,0,0,1,4.561,27.738,41.166,41.166,0,0,0,48.868,18.984,113.134,113.134,0,0,1-21.547-79.4Z" transform="translate(-269.877 -175.94)" fill="#d5d5d5"/>
  <path id="Path_72" data-name="Path 72" d="M620.05,420.42a14.2,14.2,0,1,0,4.561,27.738,41.328,41.328,0,0,1-4.561-27.738Z" transform="translate(-264.073 -189.55)" fill="#d5d5d5"/>
  <path id="Path_73" data-name="Path 73" d="M583.26,429.12a14.2,14.2,0,1,0,4.561,27.738,41.378,41.378,0,0,1-4.561-27.738Z" transform="translate(-253.256 -192.108)" fill="#d5d5d5"/>
  <path id="Path_74" data-name="Path 74" d="M887.561,246,864.68,274.035a40.086,40.086,0,0,1,2.888,5.394l25.189-30.858C891.027,247.631,889.312,246.77,887.561,246Z" transform="translate(-340.1 -138.267)" fill="#f1f1f1"/>
  <path id="Path_75" data-name="Path 75" d="M895.679,356.026a41.2,41.2,0,1,1-21.957-79.419A113.831,113.831,0,0,0,840,246.649l6.2,5.062-32.052,39.267a41.2,41.2,0,1,1-51.367-39l-2.577-2.118,14.826-18.151A112.957,112.957,0,0,0,671,332.256a41.194,41.194,0,0,1,21.561,79.4,112.957,112.957,0,0,0,203.118-55.631ZM773.368,430.712a41.208,41.208,0,1,1,57.975-5.874A41.208,41.208,0,0,1,773.368,430.712Z" transform="translate(-283.154 -134.066)" fill="#d5d5d5"/>
  <path id="Path_76" data-name="Path 76" d="M841.843,232.376q-3.353-.445-6.735-.706l-15.588,19.1a40.633,40.633,0,0,1,6.5.967Z" transform="translate(-326.822 -134.054)" fill="#f1f1f1"/>
  <path id="Path_77" data-name="Path 77" d="M850.693,261.6l18.97-23.241q-2.923-.953-5.874-1.737L846.09,258.3a42.063,42.063,0,0,1,4.405,3.128Z" transform="translate(-334.634 -135.509)" fill="#f1f1f1"/>
</svg>
